<svg width="18" height="18" viewBox="0 0 18 18" fill="none" xmlns="http://www.w3.org/2000/svg">
<path d="M12 7.49987C12 8.29558 11.6839 9.05871 11.1213 9.62136C10.5587 10.184 9.79565 10.5001 9 10.5001C8.20435 10.5001 7.44129 10.184 6.87868 9.62136C6.31607 9.05871 6 8.29558 6 7.49987M2.3269 4.52527H15.6724M2.55 4.09985C2.35527 4.35951 2.25 4.67534 2.25 4.99992V15.0005C2.25 15.3983 2.40804 15.7799 2.68934 16.0612C2.97064 16.3425 3.35218 16.5006 3.75 16.5006H14.25C14.6478 16.5006 15.0294 16.3425 15.3107 16.0612C15.592 15.7799 15.75 15.3983 15.75 15.0005V4.99992C15.75 4.67534 15.6447 4.35951 15.45 4.09985L13.95 2.09944C13.8103 1.91313 13.6291 1.76191 13.4208 1.65776C13.2125 1.55361 12.9829 1.49939 12.75 1.49939H5.25C5.01713 1.49939 4.78746 1.55361 4.57918 1.65776C4.3709 1.76191 4.18972 1.91313 4.05 2.09944L2.55 4.09985Z" stroke="#8B1E21" stroke-width="2" stroke-linecap="round"/>
</svg>

