<svg width="24" height="24" viewBox="0 0 24 24" fill="none" xmlns="http://www.w3.org/2000/svg">
<path d="M20.0007 2.00116V6.001M22.0009 4.00108H18.0006M11.0169 2.81557C11.0598 2.58618 11.1815 2.379 11.3611 2.22991C11.5406 2.08082 11.7666 1.99921 12 1.99921C12.2334 1.99921 12.4594 2.08082 12.639 2.22991C12.8185 2.379 12.9403 2.58618 12.9831 2.81557L14.0342 8.37335C14.1088 8.76848 14.3009 9.13194 14.5853 9.41628C14.8696 9.70062 15.2331 9.89264 15.6283 9.96729L21.1868 11.0182C21.4162 11.0611 21.6234 11.1828 21.7725 11.3623C21.9216 11.5418 22.0032 11.7679 22.0032 12.0012C22.0032 12.2346 21.9216 12.4606 21.7725 12.6401C21.6234 12.8196 21.4162 12.9413 21.1868 12.9842L15.6283 14.0351C15.2331 14.1098 14.8696 14.3018 14.5853 14.5861C14.3009 14.8705 14.1088 15.2339 14.0342 15.6291L12.9831 21.1868C12.9403 21.4162 12.8185 21.6234 12.639 21.7725C12.4594 21.9216 12.2334 22.0032 12 22.0032C11.7666 22.0032 11.5406 21.9216 11.3611 21.7725C11.1815 21.6234 11.0598 21.4162 11.0169 21.1868L9.96586 15.6291C9.89121 15.2339 9.69917 14.8705 9.41479 14.5861C9.13041 14.3018 8.76691 14.1098 8.37173 14.0351L2.81329 12.9842C2.58387 12.9413 2.37667 12.8196 2.22756 12.6401C2.07845 12.4606 1.99683 12.2346 1.99683 12.0012C1.99683 11.7679 2.07845 11.5418 2.22756 11.3623C2.37667 11.1828 2.58387 11.0611 2.81329 11.0182L8.37173 9.96729C8.76691 9.89264 9.13041 9.70062 9.41479 9.41628C9.69917 9.13194 9.89121 8.76848 9.96586 8.37335L11.0169 2.81557ZM5.99959 20.0005C5.99959 21.105 5.10409 22.0004 3.99943 22.0004C2.89477 22.0004 1.99927 21.105 1.99927 20.0005C1.99927 18.8959 2.89477 18.0005 3.99943 18.0005C5.10409 18.0005 5.99959 18.8959 5.99959 20.0005Z" stroke="#C49B55" stroke-width="2" stroke-linecap="round"/>
</svg>

